<svg width="121" height="121" viewBox="0 0 121 121" fill="none" xmlns="http://www.w3.org/2000/svg">
<path d="M63.9189 41.667H63.9601H63.9189ZM63.9189 41.667L60.953 57.2119L71.7456 57.2529L57.0808 78.335L60.0467 61.2314L49.2541 61.1904L63.9189 41.667ZM63.9189 39.042H63.7129C63.4932 39.0693 63.301 39.1172 63.1362 39.1855C62.9714 39.2539 62.7861 39.3564 62.5801 39.4932C62.3741 39.6299 62.1888 39.7939 62.024 39.9854C61.9965 40.0127 61.9759 40.04 61.9622 40.0674C61.9485 40.0947 61.9279 40.1221 61.9004 40.1494L47.1121 59.5908C46.4804 60.4658 46.4118 61.3818 46.9061 62.3389C46.9885 62.5029 47.0915 62.6602 47.215 62.8105C47.3386 62.9609 47.4759 63.0977 47.627 63.2207C47.778 63.3438 47.9428 63.4463 48.1213 63.5283C48.2998 63.6104 48.4852 63.6719 48.6774 63.7129C48.8696 63.7539 49.0619 63.7744 49.2541 63.7744L56.8748 63.8154L54.4444 77.8838C54.3346 78.4854 54.4307 79.0527 54.7328 79.5859C55.0349 80.1191 55.4605 80.5088 56.0098 80.7549C56.1746 80.8369 56.3462 80.8916 56.5247 80.9189C56.7032 80.9463 56.8886 80.96 57.0808 80.96C57.8772 80.96 58.55 80.6045 59.0993 79.8936L73.8876 58.8115C74.5193 57.9365 74.5879 57.0205 74.0936 56.0635C73.5993 55.1064 72.8166 54.6279 71.7456 54.6279H64.1248L66.514 42.2822C66.5415 42.1729 66.5621 42.0703 66.5758 41.9746C66.5896 41.8789 66.5964 41.7764 66.5964 41.667C66.5964 41.4209 66.5621 41.1885 66.4935 40.9697C66.4248 40.751 66.3355 40.5459 66.2257 40.3545C66.1158 40.1631 65.9854 39.9854 65.8344 39.8213C65.6833 39.6572 65.5117 39.5205 65.3194 39.4111C65.1272 39.3018 64.9212 39.2129 64.7015 39.1445C64.4818 39.0762 64.2622 39.042 64.0425 39.042H63.9189Z" fill="#322C42"/>
<path d="M51.9227 112.116L50.2461 111.665L48.609 113.82L44.5663 112.735L44.2294 110.049L42.4582 109.573L43.9107 120.14L45.371 120.532L51.9227 112.116ZM45.2589 118.197L44.7841 114.46L47.5559 115.205L45.2589 118.197Z" fill="#322C42"/>
<path d="M41.7949 108.925L40.3331 108.25L38.5318 112.152C38.0301 112.337 37.5295 112.352 37.0338 112.124C36.2203 111.748 35.9495 111.099 36.3719 110.184L37.8036 107.082L36.3419 106.407L34.7928 109.763C33.9655 111.555 34.6078 112.669 36.006 113.315C36.6924 113.631 37.4434 113.608 37.9567 113.398L37.6927 113.97L39.1544 114.645L41.7949 108.925Z" fill="#322C42"/>
<path d="M33.5377 107.347C34.4109 105.994 34.465 104.929 33.2653 104.155C32.5831 103.714 31.8514 103.609 31.3668 103.662L31.1027 104.975C31.3821 104.955 31.7471 104.958 32.1118 105.193C32.5587 105.482 32.504 105.98 32.1319 106.556L30.8867 108.485L29.1812 107.384L28.3612 108.654L30.0667 109.755L29.1176 111.226L30.4703 112.099L33.5377 107.347Z" fill="#322C42"/>
<path d="M29.0353 101.192L27.7941 100.167L23.7816 105.023L25.0228 106.049L29.0353 101.192ZM23.7078 107.904C24.118 107.408 23.9936 106.833 23.5727 106.485C23.2165 106.191 22.6285 106.177 22.2183 106.674C21.8527 107.116 21.9771 107.691 22.3333 107.985C22.7542 108.333 23.3422 108.347 23.7078 107.904Z" fill="#322C42"/>
<path d="M22.9734 99.8571L20.5351 97.3072L19.4525 98.3425L21.8907 100.892L22.9734 99.8571Z" fill="#322C42"/>
<path d="M23.0555 91.0855L22.117 89.7773L19.7168 91.4992C19.6752 91.081 19.4366 90.5803 19.1102 90.1253C17.935 88.4872 15.9621 88.2829 14.4037 89.4009C12.8907 90.4863 12.4515 92.1797 13.4634 93.5903C13.9367 94.2501 14.6423 94.6571 15.212 94.7308L14.7229 95.0817L15.6614 96.3899L23.0555 91.0855ZM14.9858 93.1185C14.3656 92.2539 14.6143 91.3518 15.4334 90.7642C16.2866 90.1522 17.3217 90.2021 17.9746 91.1122C18.2847 91.5445 18.4286 91.8892 18.4541 92.4051L16.3837 93.8903C15.8026 93.8248 15.304 93.5621 14.9858 93.1185Z" fill="#322C42"/>
<path d="M16.4422 86.0904L15.7132 84.6548L11.856 86.6134C11.3666 86.4536 10.9512 86.0993 10.7167 85.6374C10.3174 84.851 10.5447 84.1546 11.3811 83.7299L14.4519 82.1707L13.723 80.7352L10.4649 82.3895C8.70483 83.2832 8.48116 84.5744 9.17838 85.9475C9.50798 86.5966 10.0744 87.0627 10.6077 87.2472L6.97515 89.0917L7.70406 90.5272L16.4422 86.0904Z" fill="#322C42"/>
<path d="M13.0728 78.5534L12.5346 77.036L6.59701 79.1419L7.13518 80.6593L13.0728 78.5534ZM5.0538 81.5758C5.66076 81.3605 5.84939 80.8034 5.66687 80.2888C5.51244 79.8534 5.01495 79.5396 4.40799 79.7549C3.86701 79.9468 3.67838 80.5039 3.83281 80.9393C4.01532 81.4539 4.51282 81.7676 5.0538 81.5758Z" fill="#322C42"/>
<path d="M9.12735 70.8776C9.5101 70.7929 9.78009 71.106 9.87987 71.5571C10.0159 72.1722 9.85246 73.1834 9.53768 73.6402L10.7322 74.1789C11.1062 73.7951 11.4673 72.5107 11.2163 71.3762C10.8837 69.8725 9.91421 69.0546 8.69761 69.3237C6.52415 69.8045 7.81935 73.0022 6.79413 73.229C6.52074 73.2895 6.19752 73.0598 6.09169 72.5814C5.94656 71.9253 6.10517 71.2163 6.3106 70.7837L5.05967 70.4438C4.78893 70.9052 4.53449 71.7644 4.79755 72.9537C5.07875 74.225 5.96626 75.061 7.16919 74.7949C9.411 74.2991 8.12947 71.0983 9.12735 70.8776Z" fill="#322C42"/>
<path d="M10.2761 66.4359L10.1617 64.83L5.84665 65.1373C5.45771 64.8001 5.21244 64.3122 5.17565 63.7956C5.113 62.9158 5.59289 62.3623 6.52852 62.2957L9.96382 62.051L9.84946 60.4451L6.20469 60.7047C4.23568 60.8449 3.52824 61.9479 3.63763 63.484C3.68934 64.2102 4.03034 64.8596 4.45018 65.2367L0.386475 65.5261L0.500837 67.132L10.2761 66.4359Z" fill="#322C42"/>
<path d="M10.0973 58.1819L10.1905 56.5746L3.90102 56.21L3.80783 57.8173L10.0973 58.1819ZM1.53391 57.8537C2.17683 57.891 2.56696 57.4509 2.59856 56.9058C2.6253 56.4445 2.28866 55.9623 1.64573 55.925C1.0727 55.8918 0.682567 56.3319 0.655826 56.7931C0.624223 57.3382 0.960871 57.8205 1.53391 57.8537Z" fill="#322C42"/>
<path d="M10.6021 53.0595L10.9013 51.4776L6.67815 50.6789C6.37698 50.2372 6.24014 49.7554 6.3416 49.2189C6.50811 48.3385 7.07208 47.918 8.06252 48.1053L11.419 48.7401L11.7182 47.1582L8.08659 46.4713C6.14697 46.1045 5.22277 46.9983 4.93659 48.5115C4.7961 49.2543 5.00137 49.9771 5.33005 50.4239L4.71103 50.3068L4.41184 51.8888L10.6021 53.0595Z" fill="#322C42"/>
<path d="M12.9585 46.386C14.321 46.8581 15.3751 45.6972 15.9755 43.9642C16.5759 42.2313 16.4395 40.6579 15.1034 40.195C13.7673 39.7321 12.6867 40.8838 12.0863 42.6168L12.0634 42.6829C11.9525 42.7038 11.8375 42.6936 11.7316 42.6569C11.6655 42.634 11.5861 42.6065 11.5159 42.5525L11.5526 42.4467C12.0842 40.9122 11.4226 39.5717 10.232 39.1592C9.96746 39.0676 9.68455 39.0288 9.41436 39.0389L9.53321 37.9689L8.29785 37.6001L8.0714 39.5367C7.66475 39.8551 7.32726 40.3161 7.12102 40.9113C6.57563 42.4855 7.28611 43.8133 8.47668 44.2258C9.34977 44.5283 10.2958 44.2782 10.9646 43.5024C11.0516 43.6362 11.1966 43.7309 11.3421 43.7813C11.4744 43.8271 11.6469 43.8425 11.7888 43.8176C11.6328 45.0377 11.9663 46.0423 12.9585 46.386ZM13.4489 44.9705C13.0123 44.8193 12.9275 44.1232 13.3033 43.0384C13.6837 41.9405 14.1718 41.4725 14.6084 41.6237C15.0846 41.7887 15.116 42.5108 14.7585 43.5426C14.401 44.5744 13.9119 45.1309 13.4489 44.9705ZM8.97166 42.7971C8.42929 42.6092 8.11295 42.0255 8.35128 41.3376C8.59877 40.6232 9.18603 40.3822 9.74163 40.5747C10.3369 40.7809 10.5469 41.3723 10.3223 42.0205C10.084 42.7083 9.52726 42.9896 8.97166 42.7971Z" fill="#322C42"/>
<path d="M21.1996 28.5273L22.316 26.8655L19.5701 27.0616C19.1318 25.8059 18.15 24.556 16.86 23.6894L15.97 25.0143C17.0159 25.7169 17.6034 26.4994 17.9622 27.1453L14.8435 27.3439C15.0401 26.6496 14.6978 25.7281 13.9773 25.2441C12.8733 24.5025 11.5941 24.9756 10.9149 25.9866C10.2357 26.9977 10.2814 28.3607 11.3854 29.1024C12.1524 29.6176 12.9252 29.597 13.5672 29.2188C13.5933 30.6361 13.7285 31.9413 15.0882 32.8547C16.4362 33.7603 18.1501 33.3431 19.2586 31.6928C20.0862 30.461 20.0859 29.432 19.8906 28.6431L21.1996 28.5273ZM17.9534 30.7486C17.4772 31.4575 16.5446 31.6406 15.8358 31.1644C15.2198 30.7506 15.0242 30.0626 14.9197 28.8624L18.2828 28.7267C18.5058 29.3488 18.4374 30.0281 17.9534 30.7486ZM12.2207 27.8589C11.8256 27.5935 11.7381 27.0961 11.9957 26.7126C12.2455 26.3408 12.7585 26.23 13.142 26.4876C13.5022 26.7296 13.6208 27.2309 13.3554 27.626C13.09 28.0212 12.581 28.1009 12.2207 27.8589Z" fill="#322C42"/>
<path d="M25.8935 23.4483L27.2238 22.3328L26.3967 19.7559L29.6042 17.0663L31.9975 18.3298L33.4029 17.1514L23.9127 12.2833L22.7541 13.2549L25.8935 23.4483ZM24.7315 14.5018L28.0656 16.2554L25.8664 18.0995L24.7315 14.5018Z" fill="#322C42"/>
<path d="M34.3147 16.9801L35.7057 16.1693L33.5412 12.4561C33.6775 11.9392 33.9517 11.52 34.4234 11.2451C35.1975 10.7938 35.8847 10.9442 36.3924 11.8151L38.1126 14.7663L39.5036 13.9555L37.6423 10.7624C36.6482 9.05697 35.3674 8.94469 34.0369 9.72022C33.3838 10.1009 32.9724 10.7296 32.8503 11.2708L32.5331 10.7265L31.1421 11.5373L34.3147 16.9801Z" fill="#322C42"/>
<path d="M40.3417 11.1194C40.9493 12.6103 41.7907 13.2652 43.1131 12.7262C43.865 12.4198 44.3711 11.8809 44.6049 11.453L43.6808 10.4841C43.5368 10.7242 43.3256 11.022 42.9237 11.1858C42.431 11.3866 42.0545 11.0563 41.7956 10.421L40.929 8.2948L42.8089 7.52863L42.2382 6.12845L40.3583 6.89463L39.6978 5.27406L38.2069 5.88172L40.3417 11.1194Z" fill="#322C42"/>
<path d="M47.9658 10.9593L49.5176 10.5303L47.8388 4.45807L46.287 4.8871L47.9658 10.9593ZM45.5207 2.74588C45.6923 3.36659 46.2346 3.59432 46.7609 3.44882C47.2062 3.32571 47.5545 2.85175 47.3828 2.23104C47.2299 1.6778 46.6876 1.45007 46.2423 1.57319C45.716 1.71868 45.3677 2.19264 45.5207 2.74588Z" fill="#322C42"/>
<path d="M52.5349 6.75774L56.022 6.22194L55.7945 4.74132L52.3074 5.27712L52.5349 6.75774Z" fill="#322C42"/>
<path d="M60.0749 4.37934C60.5331 4.16125 60.9911 3.92916 61.719 3.91635C62.6569 3.89985 62.9469 4.46884 62.9234 5.51941C62.6115 5.30086 62.0484 5.12874 61.4885 5.13859C60.2147 5.16101 59.2044 5.83688 59.2288 7.22267C59.2502 8.44048 60.0886 9.13984 61.2365 9.11964C62.0903 9.10462 62.7563 8.75685 63.0839 8.27502L63.0967 9.0029L64.4965 8.97828L64.429 5.14287C64.3997 3.47713 63.7251 2.53685 61.8633 2.5696C61.0375 2.58413 60.1885 2.87911 59.6483 3.21067L60.0749 4.37934ZM61.7445 7.7525C61.2406 7.76136 60.844 7.5023 60.8356 7.02637C60.8262 6.49445 61.2977 6.23412 61.8296 6.22476C62.2916 6.21663 62.6572 6.30822 62.9409 6.51326L62.9522 7.15716C62.7612 7.44056 62.4164 7.74067 61.7445 7.7525Z" fill="#322C42"/>
<path d="M71.2977 9.80157L72.8943 10.0087L74.1551 0.290131L72.5585 0.0830078L72.0884 3.70664C71.7683 3.45336 71.3783 3.30395 70.8229 3.2319C68.8098 2.97075 67.2154 4.16152 66.9596 6.133C66.7129 8.03506 67.7013 9.44797 69.4923 9.6803C70.2976 9.78477 70.9082 9.53929 71.3824 9.14904L71.2977 9.80157ZM70.0182 8.23798C69.1713 8.12811 68.5304 7.40969 68.6745 6.299C68.824 5.14665 69.7537 4.61787 70.6978 4.74034C71.1282 4.79618 71.5146 4.97336 71.8849 5.2755L71.5589 7.78844C71.1511 8.10259 70.6013 8.31362 70.0182 8.23798Z" fill="#322C42"/>
<path d="M82.1372 6.14107L80.5072 5.68009L78.7287 7.95601C78.4566 8.30097 78.1252 8.80378 77.8879 9.23134C77.9135 8.72936 77.8773 8.13715 77.8185 7.7277L77.4356 4.81146L75.59 4.28952L76.6566 11.1673L77.8017 11.4912L82.1372 6.14107Z" fill="#322C42"/>
<path d="M86.9327 13.2956C86.4802 13.4146 85.778 13.4061 85.0756 13.0906C84.1689 12.6833 83.6916 11.901 83.954 10.9752L88.1044 12.8397C88.2658 12.6512 88.3889 12.4456 88.5495 12.088C89.2723 10.4789 88.5097 8.86251 87.0283 8.19704C85.1383 7.348 83.3866 8.17261 82.635 9.84557C81.8204 11.659 82.5199 13.4159 84.3717 14.2477C85.1762 14.6092 86.0968 14.7464 86.8895 14.5193L86.9327 13.2956ZM86.4137 9.39434C87.2566 9.77297 87.4952 10.5401 87.1669 11.2368L84.3446 9.96893C84.8363 9.2843 85.5326 8.99851 86.4137 9.39434Z" fill="#322C42"/>
<path d="M88.8341 16.4899L90.2007 17.3411L92.436 13.7523C92.7829 13.5396 93.1953 13.4336 93.6707 13.7297C93.9559 13.9073 94.0688 14.0437 94.2341 14.361L95.5207 13.3811C95.4238 13.1393 95.2543 12.9348 94.8147 12.6609C94.173 12.2612 93.67 12.3273 93.2058 12.5165L93.5315 11.9936L92.1649 11.1424L88.8341 16.4899Z" fill="#322C42"/>
<path d="M95.2389 17.9668C94.2263 19.2185 94.0587 20.2714 95.1689 21.1696C95.8002 21.6803 96.5164 21.8635 97.004 21.8618L97.4067 20.5849C97.1269 20.5746 96.7642 20.5333 96.4267 20.2603C96.0131 19.9257 96.1208 19.4365 96.5522 18.9032L97.9963 17.1182L99.5745 18.395L100.526 17.2195L98.9473 15.9427L100.048 14.5822L98.7963 13.5696L95.2389 17.9668Z" fill="#322C42"/>
<path d="M99.0583 24.5672L100.183 25.7193L104.691 21.3187L103.567 20.1666L99.0583 24.5672ZM105.072 18.4622C104.611 18.912 104.674 19.4969 105.055 19.8876C105.378 20.2182 105.961 20.2946 106.422 19.8447C106.833 19.4438 106.77 18.8589 106.448 18.5283C106.066 18.1376 105.483 18.0612 105.072 18.4622Z" fill="#322C42"/>
<path d="M105.857 29.8828C105.545 30.1201 105.169 29.949 104.889 29.5813C104.508 29.0798 104.233 28.0932 104.327 27.5466L103.017 27.5581C102.838 28.0633 103.048 29.3807 103.752 30.3057C104.684 31.5315 105.907 31.8677 106.899 31.1135C108.671 29.7661 106.155 27.4056 106.99 26.77C107.213 26.6005 107.603 26.6735 107.899 27.0636C108.306 27.5985 108.459 28.3087 108.454 28.7875L109.732 28.5718C109.785 28.0394 109.656 27.1527 108.918 26.1831C108.13 25.1468 106.974 24.7597 105.993 25.5054C104.166 26.8952 106.671 29.2642 105.857 29.8828Z" fill="#322C42"/>
<path d="M106.823 34.7027L107.633 36.0943L113.078 32.9256L112.269 31.534L106.823 34.7027ZM114.144 30.2481C113.588 30.572 113.505 31.1544 113.78 31.6263C114.012 32.0256 114.559 32.2419 115.116 31.918C115.612 31.6293 115.694 31.0469 115.462 30.6476C115.187 30.1757 114.64 29.9594 114.144 30.2481Z" fill="#322C42"/>
<path d="M109.231 39.2523L109.855 40.7364L113.817 39.0705C114.312 39.2725 114.692 39.5986 114.904 40.1019C115.251 40.9279 115.013 41.5899 114.084 41.9806L110.935 43.3046L111.559 44.7888L114.966 43.3562C116.785 42.5911 117.062 41.3356 116.466 39.916C116.173 39.2191 115.602 38.7298 115.082 38.5387L115.662 38.2946L115.038 36.8104L109.231 39.2523Z" fill="#322C42"/>
<path d="M110.951 46.1175C109.554 46.4762 109.316 48.0261 109.773 49.8025C110.229 51.5788 111.211 52.8152 112.581 52.4635C113.951 52.1117 114.216 50.5548 113.759 48.7785L113.742 48.7107C113.823 48.6321 113.924 48.5771 114.033 48.5492C114.101 48.5318 114.182 48.5109 114.27 48.5171L114.298 48.6256C114.702 50.1985 115.994 50.9508 117.214 50.6374C117.486 50.5677 117.743 50.4438 117.962 50.2862L118.454 51.244L119.688 50.8693L118.807 49.1297C118.971 48.6396 118.997 48.069 118.841 47.4588C118.426 45.8452 117.101 45.1305 115.88 45.4439C114.985 45.6738 114.335 46.4047 114.206 47.4208C114.059 47.3572 113.886 47.3583 113.737 47.3966C113.601 47.4314 113.449 47.5139 113.344 47.6131C112.801 46.5096 111.968 45.8562 110.951 46.1175ZM111.324 47.5684C111.771 47.4534 112.226 47.987 112.512 49.0989C112.801 50.2244 112.652 50.8841 112.205 50.999C111.717 51.1244 111.292 50.5397 111.02 49.482C110.748 48.4244 110.849 47.6903 111.324 47.5684ZM116.257 46.9084C116.812 46.7656 117.399 47.0776 117.58 47.7827C117.768 48.515 117.411 49.0402 116.842 49.1865C116.231 49.3432 115.73 48.9661 115.559 48.3017C115.378 47.5966 115.687 47.0547 116.257 46.9084Z" fill="#322C42"/>
<path d="M118.622 59.1255C118.84 59.5839 119.071 60.042 119.084 60.7699C119.099 61.7078 118.53 61.9974 117.48 61.9731C117.698 61.6614 117.871 61.0984 117.862 60.5385C117.84 59.2647 117.165 58.2539 115.779 58.2773C114.561 58.2978 113.861 59.1358 113.881 60.2836C113.895 61.1375 114.242 61.8037 114.724 62.1316L113.996 62.1439L114.02 63.5437L117.855 63.479C119.521 63.4509 120.462 62.777 120.43 60.9152C120.416 60.0893 120.122 59.2402 119.791 58.6997L118.622 59.1255ZM115.247 60.7926C115.239 60.2887 115.498 59.8923 115.974 59.8842C116.506 59.8753 116.766 60.3469 116.775 60.8789C116.783 61.3408 116.691 61.7064 116.486 61.9899L115.842 62.0008C115.559 61.8095 115.259 61.4645 115.247 60.7926Z" fill="#322C42"/>
<path d="M110.982 65.6371L110.773 67.2336L113.703 67.6158C113.447 67.9495 113.28 68.4783 113.207 69.0336C112.946 71.0326 114.248 72.5295 116.149 72.7777C117.996 73.0185 119.473 72.0818 119.698 70.3604C119.803 69.5552 119.566 68.776 119.2 68.333L119.797 68.4108L120.005 66.8144L110.982 65.6371ZM118.264 69.665C118.126 70.7201 117.328 71.209 116.329 71.0786C115.288 70.9427 114.566 70.1991 114.711 69.0885C114.779 68.561 114.91 68.2109 115.244 67.8168L117.77 68.1464C118.15 68.5913 118.335 69.1236 118.264 69.665Z" fill="#322C42"/>
<path d="M109.71 73.0229L109.262 74.5693L112.099 75.3918C111.796 75.683 111.55 76.1801 111.394 76.7179C110.832 78.6542 111.891 80.3314 113.733 80.8655C115.522 81.384 117.124 80.6825 117.608 79.0152C117.834 78.2353 117.718 77.4291 117.424 76.9356L118.002 77.1033L118.45 75.557L109.71 73.0229ZM116.296 78.1101C116 79.132 115.137 79.494 114.169 79.2133C113.16 78.921 112.56 78.0763 112.871 77.0006C113.02 76.4897 113.202 76.1634 113.591 75.8246L116.039 76.5341C116.346 77.0314 116.448 77.5857 116.296 78.1101Z" fill="#322C42"/>
<path d="M111.407 82.0721C110.229 81.5504 109.482 81.7858 109.091 82.669C108.784 83.3602 108.781 83.9558 108.902 84.4077L110.165 84.5995C110.116 84.3636 110.099 84.1263 110.201 83.8959C110.354 83.5503 110.704 83.5214 111.356 83.8107L118.128 86.8106L118.78 85.3387L111.407 82.0721Z" fill="#322C42"/>
<path d="M106.973 87.0504L106.161 88.4408L111.601 91.6174L112.413 90.227L106.973 87.0504ZM114.456 91.2255C113.9 90.9008 113.353 91.1162 113.078 91.5877C112.845 91.9867 112.926 92.5692 113.482 92.8939C113.978 93.1833 114.525 92.9679 114.758 92.5689C115.034 92.0974 114.952 91.5149 114.456 91.2255Z" fill="#322C42"/>
<path d="M102.963 96.4794C102.853 95.8849 102.92 95.2666 103.336 94.7211C103.913 93.9642 104.985 93.6901 105.876 94.3693C106.755 95.0401 106.782 96.1352 106.239 96.8476C105.891 97.304 105.454 97.6224 104.798 97.7207L105.353 99.0945C106.177 98.9835 106.94 98.4213 107.569 97.5976C108.732 96.0726 108.378 94.1124 106.92 93.0002C105.339 91.7945 103.461 92.0873 102.221 93.7125C101.601 94.5251 101.324 95.5112 101.57 96.3673L102.963 96.4794Z" fill="#322C42"/>
<path d="M102.431 100.691C102.25 101.165 102.078 101.649 101.56 102.16C100.892 102.819 100.289 102.607 99.5821 101.83C99.9587 101.773 100.485 101.509 100.884 101.116C101.791 100.222 102.057 99.0355 101.083 98.0486C100.228 97.1814 99.1387 97.253 98.3214 98.0591C97.7133 98.6588 97.4708 99.3699 97.5658 99.9447L97.0546 99.4264L96.0578 100.409L98.7513 103.141C99.9211 104.327 101.058 104.543 102.384 103.235C102.972 102.655 103.383 101.856 103.546 101.244L102.431 100.691ZM98.8961 99.3996C99.255 99.0457 99.7209 98.9598 100.055 99.2988C100.429 99.6775 100.267 100.191 99.8879 100.565C99.559 100.889 99.231 101.075 98.8842 101.122L98.432 100.664C98.3749 100.327 98.4177 99.8715 98.8961 99.3996Z" fill="#322C42"/>
<path d="M95.5984 103.762C94.6323 102.475 93.6523 102.055 92.51 102.911C91.8604 103.399 91.5076 104.048 91.3901 104.522L92.5297 105.224C92.6081 104.955 92.7369 104.614 93.0841 104.353C93.5097 104.034 93.9577 104.258 94.3693 104.807L95.747 106.644L94.1231 107.862L95.0304 109.071L96.6543 107.853L97.7044 109.253L98.9924 108.287L95.5984 103.762Z" fill="#322C42"/>
<path d="M88.2645 105.852L86.8724 106.661L90.0371 112.108L91.4292 111.299L88.2645 105.852ZM92.7138 113.176C92.3903 112.619 91.808 112.537 91.3358 112.811C90.9364 113.043 90.7197 113.59 91.0432 114.147C91.3316 114.643 91.9139 114.726 92.3134 114.494C92.7855 114.219 93.0021 113.672 92.7138 113.176Z" fill="#322C42"/>
<path d="M85.2934 111.009C84.5621 109.266 82.7757 108.483 80.8522 109.29C78.9286 110.097 78.2364 111.921 78.9677 113.663C79.699 115.406 81.4854 116.19 83.409 115.383C85.3325 114.576 86.0247 112.752 85.2934 111.009ZM83.7055 111.675C84.1281 112.682 83.7018 113.62 82.8239 113.989C81.9203 114.368 80.9544 113.984 80.5427 113.003C80.1202 111.996 80.5152 111.056 81.4318 110.671C82.3355 110.292 83.2993 110.707 83.7055 111.675Z" fill="#322C42"/>
<path d="M76.2852 111.006L74.7232 111.397L75.765 115.566C75.4899 116.025 75.1095 116.351 74.5798 116.483C73.7105 116.7 73.0926 116.364 72.8483 115.386L72.0203 112.072L70.4583 112.462L71.3541 116.048C71.8326 117.963 73.0312 118.428 74.5253 118.055C75.2587 117.872 75.8292 117.383 76.0975 116.897L76.2502 117.509L77.8122 117.118L76.2852 111.006Z" fill="#322C42"/>
</svg>
