<svg width="58" height="58" viewBox="0 0 58 58" fill="none" xmlns="http://www.w3.org/2000/svg">
<circle cx="29" cy="29" r="29" fill="#322C42"/>
<path d="M23.7769 36.2509L23.7799 36.2519L22.6691 38.2408C22.2636 38.9668 21.3656 39.2155 20.6633 38.7964C19.9611 38.3772 19.7204 37.4489 20.1258 36.7229L20.9441 35.2578L21.0227 35.1171C21.1629 34.9088 21.509 34.5491 22.2013 34.6168C22.2013 34.6168 23.8304 34.7995 23.9483 35.6748C23.9483 35.6748 23.9643 35.9628 23.7769 36.2509ZM39.5317 31.1712H36.0678C35.8319 31.1548 35.729 31.0677 35.6884 31.017L35.6858 31.0125L31.978 24.3734L31.9731 24.3767L31.7508 24.0471C31.3863 23.471 30.8076 24.9445 30.8076 24.9445C30.1166 26.5865 30.9057 28.4532 31.1807 29.0174L36.3309 38.2388C36.7363 38.9647 37.6343 39.2136 38.3367 38.7943C39.0389 38.3751 39.2796 37.4468 38.874 36.7208L37.5863 34.415C37.5613 34.3591 37.5179 34.2075 37.782 34.2068H39.5317C40.3426 34.2068 41 33.5272 41 32.6889C41 31.8506 40.3426 31.1711 39.5317 31.1711V31.1712ZM32.8037 33.2346C32.8037 33.2346 32.9886 34.2068 32.2733 34.2068H19.4683C18.6574 34.2068 18 33.5272 18 32.6889C18 31.8506 18.6574 31.1711 19.4683 31.1711H22.7603C23.2918 31.1393 23.4177 30.8221 23.4177 30.8221L23.4208 30.8237L27.7179 23.1296L27.7166 23.1293C27.7949 22.9807 27.7297 22.8402 27.7184 22.818L26.2992 20.277C25.8937 19.5511 26.1343 18.6227 26.8366 18.2036C27.5389 17.7845 28.437 18.0331 28.8424 18.7591L29.5006 19.9376L30.1576 18.7612C30.563 18.0353 31.4611 17.7865 32.1634 18.2057C32.8657 18.6249 33.1063 19.5531 32.7008 20.2791L26.7211 30.9856C26.695 31.0508 26.687 31.1531 26.8816 31.1711H30.4558L30.4566 31.2071C30.4566 31.2071 32.5224 31.2403 32.8037 33.2346Z" fill="white"/>
</svg>
