<svg width="1440" height="586" viewBox="0 0 1440 586" fill="none" xmlns="http://www.w3.org/2000/svg">
<path d="M-8 585C52.6373 498.928 185.585 340.023 185.585 396.842C185.585 419 83.4424 403.348 140.837 348.802C198.232 294.256 267.3 255.224 305.725 286.75C344.15 318.277 220.606 486.417 283.351 503.932C346.096 521.447 367.984 296.759 423.433 299.761C478.882 302.764 338.8 194.673 385.494 153.138C432.188 111.603 555.733 148.634 516.335 77.5749C476.936 6.51539 607.777 71.0695 558.651 70.0686C509.525 69.0678 490.069 0.00993562 572.27 1.01077C654.471 2.01161 733.102 208.104 844 84.5C954.898 -39.1036 934.849 134.381 956 115.5C966.906 105.765 904.965 92.087 903.019 122.613C901.074 153.138 885.022 295.257 970.142 247.217C1055.26 199.177 878.699 381.83 924.421 417.86C970.142 453.89 1084.44 432.372 1076.18 364.315C1067.91 296.258 1026.08 191.67 1103.9 200.178C1181.72 208.685 1260.14 386.464 1280.46 335.791C1289 314.5 1226.96 315.274 1243.01 353.306C1259.06 391.338 1304 451.5 1328.13 412.355C1366.66 349.85 1225.01 191.17 1328.13 160.645C1410.62 136.224 1437.08 137.458 1440 141.128" stroke="#C4C5C9"/>
</svg>
