<svg width="1440" height="445" viewBox="0 0 1440 445" fill="none" xmlns="http://www.w3.org/2000/svg">
<path opacity="0.24" d="M1481.15 444.373C1504.52 415.997 1535.88 344.141 1474.35 283.73C1397.43 208.216 1353.34 307.181 1378.19 327.35C1403.05 347.518 1409.85 273.176 1377.73 253.243C1345.6 233.309 1299.87 332.04 1230.68 290.062C1161.5 248.083 1143.56 146.14 1091.07 142.68C1045.57 139.68 1001.7 210.793 1067.7 243.393C1087.16 253.008 1094.9 208.685 1021.97 197.662C947.573 186.42 840.898 56.4628 815.101 86.9498C794.464 111.339 902.113 194.625 853.093 216.403C804.073 238.18 666.573 125.701 603.073 86.9498C539.573 48.1985 448.073 172.199 453.573 196.199C459.073 220.198 478.339 207.198 478.573 196.199C479.573 149.199 421.073 49.6985 309.573 100.199C198.073 150.699 221.573 387.699 147.573 278.699C73.573 169.699 96.073 -180.301 -136.427 120.199" stroke="#0A0E1D"/>
</svg>
