<svg width="1440" height="445" viewBox="0 0 1440 445" fill="none" xmlns="http://www.w3.org/2000/svg">
<path opacity="0.24" d="M-7.07417 444.674C-30.4476 416.298 -61.8101 344.442 -0.273185 284.031C76.648 208.517 120.737 307.483 95.8783 327.651C71.0196 347.819 64.2186 273.478 96.3473 253.544C128.476 233.61 174.206 332.341 243.389 290.363C312.571 248.385 330.514 146.442 383 142.981C428.5 139.981 472.372 211.094 406.377 243.694C386.912 253.31 379.173 208.986 452.108 197.964C526.5 186.721 633.175 56.7643 658.972 87.2513C679.609 111.641 571.96 194.927 620.98 216.704C670 238.481 807.5 126.003 871 87.2513C934.5 48.5 1026 172.5 1020.5 196.5C1015 220.5 995.734 207.5 995.5 196.5C994.5 149.5 1053 50 1164.5 100.5C1276 151 1252.5 388 1326.5 279C1400.5 170 1378 -180 1610.5 120.5" stroke="#0A0E1D"/>
</svg>
