<svg width="887" height="364" viewBox="0 0 887 364" fill="none" xmlns="http://www.w3.org/2000/svg">
<path opacity="0.24" d="M7.92577 362.693C-15.4476 334.317 -46.8103 262.461 14.7267 202.05C91.6478 126.536 135.737 225.502 110.878 245.67C86.0194 265.838 79.2185 191.497 111.347 171.563C143.476 151.629 189.206 250.36 258.389 208.382C327.571 166.404 345.513 64.4606 398 61C443.5 58 487.371 129.113 421.377 161.713C401.912 171.329 394.173 127.005 467.108 115.983C541.5 104.74 648.175 -25.2168 673.972 5.27023C694.609 29.6599 586.96 112.946 635.98 134.723C685 156.5 826.8 89.4863 886 5.27024" stroke="#0A0E1D"/>
</svg>
