<svg width="48" height="48" viewBox="0 0 48 48" fill="none" xmlns="http://www.w3.org/2000/svg">
<circle cx="24" cy="24" r="24" fill="white"/>
<path fill-rule="evenodd" clip-rule="evenodd" d="M9 18.3472C9 12.0803 14.3726 7 21 7H25.8784C29.8116 7 33 10.015 33 13.7342V15.0722C33 18.864 29.1698 21.6068 25.31 20.5789L21.4806 19.5591C18.7166 18.823 17.8242 15.5383 19.8708 13.6336C20.5705 12.9825 21.5129 12.6175 22.4946 12.6175H24.1916C25.2355 12.6175 26.0817 13.4177 26.0817 14.4048C26.0817 15.3919 25.2355 16.1921 24.1916 16.1921H22.7822L26.3347 17.1382C27.7828 17.5238 29.2198 16.4948 29.2198 15.0722V13.7342C29.2198 11.9892 27.7238 10.5746 25.8784 10.5746H21C16.4603 10.5746 12.7802 14.0545 12.7802 18.3472V24H9V18.3472Z" fill="url(#paint0_linear)"/>
<mask id="mask0" mask-type="alpha" maskUnits="userSpaceOnUse" x="9" y="7" width="25" height="33">
<path d="M21.2321 7C14.5012 7 9.04464 11.6622 9.04464 17.4133L9 18.8683L9 34.4573C9 37.5184 12.0838 40 15.888 40H25.3342C27.0766 40 28.7658 38.9668 30.1172 38.0817L31.7303 37.0251L33.3268 35.7283C33.8024 35.3419 34.0456 35.3581 33.9929 34.8159L33.8437 33.279C33.8133 32.9663 33.6452 32.6726 33.3695 32.4507L31.9455 31.3048L32.9401 27.7249C33.1947 27.2668 32.8906 26.733 32.2931 26.589L14.761 22.3345C14.5723 22.289 14.3835 22.254 14.1954 22.229C13.8354 22.1367 13.3823 22.0003 12.8839 21.8035V17.4133C12.8839 13.4739 16.6216 10.2804 21.2321 10.2804H25.8236C27.8984 10.2804 29.5804 11.7175 29.5804 13.4902V14.9936C29.5804 16.4016 27.9881 17.4092 26.4118 16.9989L22.8286 16.066C22.7944 16.0571 22.7816 16.0469 22.7745 16.0404C22.764 16.0308 22.7518 16.0145 22.7447 15.9917C22.7376 15.9689 22.7387 15.9496 22.7422 15.9368C22.7446 15.9282 22.7498 15.9139 22.7742 15.8916C22.7978 15.8702 22.8306 15.8581 22.8649 15.8581H24.4736C25.5338 15.8581 26.3933 15.1238 26.3933 14.2179C26.3933 13.3121 25.5338 12.5777 24.4736 12.5777H22.8649C21.7705 12.5777 20.7248 12.9644 19.9756 13.646C17.9649 15.4753 18.9 18.4724 21.7096 19.2039L25.2928 20.1368C29.3358 21.1894 33.4196 18.6049 33.4196 14.9936V13.4902C33.4196 9.90576 30.0188 7 25.8236 7H21.2321Z" fill="#61BB37"/>
</mask>
<g mask="url(#mask0)">
<g filter="url(#filter0_d)">
<path d="M14.1959 22.3397C12.9211 22.0149 10.4768 21.1404 9 19V34.4918C9 37.5339 12.0842 40 15.8887 40H25.3359C27.0785 40 28.5893 38.9719 29.9408 38.0923L31.554 37.0423L33.1508 35.7535C33.6264 35.3696 34.0482 35.387 33.9955 34.8482L33.8463 33.3209C33.8159 33.0101 33.6478 32.7182 33.3721 32.4978L31.9479 31.359L32.8533 27.7097C33.1079 27.2544 32.8038 26.7239 32.2063 26.5809L14.7616 22.4445C14.5728 22.3994 14.384 22.3646 14.1959 22.3397Z" fill="url(#paint1_linear)"/>
</g>
<g filter="url(#filter1_f)">
<path d="M39.7421 35.6746C38.2341 41.3772 31.8655 44.6028 25.5173 42.8793C19.1691 41.1557 15.2454 35.1357 16.7534 29.4331C18.2614 23.7305 24.6301 20.5049 30.9782 22.2284C37.3264 23.952 41.2501 29.972 39.7421 35.6746Z" fill="#0B2D55" fill-opacity="0.25"/>
</g>
</g>
<path d="M25 31C25 32.6569 23.8807 34 22.5 34C21.1193 34 20 32.6569 20 31C20 29.3431 21.1193 28 22.5 28C23.8807 28 25 29.3431 25 31Z" fill="#A1E13B"/>
<path d="M34.0896 22.0515C35.5202 22.6759 32.7886 26.9791 32.7886 27.7208C32.7886 28.4379 33.924 28.5512 34.2833 29.1656C36.2 32.4441 33.8673 35.4034 32.0227 36.3982C29.6943 39.7209 24.9252 39.1671 22.8317 38.4749C21.1977 39.0188 18.5426 38.4601 20.9935 31.8741C24.0571 23.6417 33.1353 21.635 34.0896 22.0515Z" fill="url(#paint2_linear)"/>
<g filter="url(#filter2_d)">
<path d="M25.5956 37.3121C21.3658 36.613 20.4545 37.5764 20 38.385C25.8777 42.3969 31.8025 37.8252 32.4138 36.5657C32.4477 36.4959 34.6238 35.5394 35 34C34.3607 35.0525 29.9393 38.03 25.5956 37.3121Z" fill="url(#paint3_linear)"/>
</g>
<path d="M30 32.5C30 34.433 28.6569 36 27 36C25.3431 36 24 34.433 24 32.5C24 30.567 25.3431 29 27 29C28.6569 29 30 30.567 30 32.5Z" fill="#79C939"/>
<path d="M30 32C30 33.6569 28.6569 35 27 35C25.3431 35 24 33.6569 24 32C24 30.3431 25.3431 29 27 29C28.6569 29 30 30.3431 30 32Z" fill="white"/>
<path d="M28 31C28 31.5523 27.7761 32 27.5 32C27.2239 32 27 31.5523 27 31C27 30.4477 27.2239 30 27.5 30C27.7761 30 28 30.4477 28 31Z" fill="#121521"/>
<path fill-rule="evenodd" clip-rule="evenodd" d="M29 31C29 31.5523 28.3284 32 27.5 32C26.6716 32 26 31.5523 26 31C26 30.4477 26.6716 30 27.5 30C28.3284 30 29 30.4477 29 31ZM27.5 31.5152C27.9268 31.5152 28.2727 31.2845 28.2727 31C28.2727 30.7155 27.9268 30.4848 27.5 30.4848C27.0732 30.4848 26.7273 30.7155 26.7273 31C26.7273 31.2845 27.0732 31.5152 27.5 31.5152Z" fill="#79C939"/>
<path d="M35.1239 36C34.4369 36 33.8192 36.6579 33.4555 37.1608C33.2927 37.3859 33.1986 37.6747 33.0375 37.9015C32.831 38.1922 32.5231 38.376 32.254 38.5367C31.9558 38.7147 31.9807 39.0559 32.0304 39.2042C32.1919 39.2784 32.6342 39.3377 33.1113 38.9817C33.2107 38.9075 33.3021 38.8243 33.3853 38.7369C33.8415 38.258 34.4149 37.479 34.9003 37.9136C35.1388 38.1272 35.0494 38.863 34.9748 39.2042C34.8755 39.308 34.6618 39.5691 34.6021 39.7827C34.5276 40.0497 35.683 40.0942 35.9439 39.7827C36.1526 39.5335 35.8569 39.2932 35.683 39.2042C35.5557 38.9003 35.5145 38.6342 35.5187 38.4163C35.5249 38.0891 35.833 38.0778 36.0342 38.2958C36.4926 38.7926 37.1418 39.1699 37.6584 39.2042C38.1951 39.2398 37.9814 38.8927 37.8075 38.7147C36.5403 38.2696 36.2794 36 35.1239 36Z" fill="#60B938"/>
<path d="M33 39C33 39.5523 32.5523 40 32 40C31.4477 40 31 39.5523 31 39C31 38.4477 31.4477 38 32 38C32.5523 38 33 38.4477 33 39Z" fill="#8AD33A"/>
<path d="M39 39C39 39.5523 38.5523 40 38 40C37.4477 40 37 39.5523 37 39C37 38.4477 37.4477 38 38 38C38.5523 38 39 38.4477 39 39Z" fill="#8AD33A"/>
<path d="M36 39.5C36 39.7761 35.5523 40 35 40C34.4477 40 34 39.7761 34 39.5C34 39.2239 34.4477 39 35 39C35.5523 39 36 39.2239 36 39.5Z" fill="#8AD33A"/>
<defs>
<filter id="filter0_d" x="-50" y="-60" width="143" height="139" filterUnits="userSpaceOnUse" color-interpolation-filters="sRGB">
<feFlood flood-opacity="0" result="BackgroundImageFix"/>
<feColorMatrix in="SourceAlpha" type="matrix" values="0 0 0 0 0 0 0 0 0 0 0 0 0 0 0 0 0 0 127 0"/>
<feOffset dy="-20"/>
<feGaussianBlur stdDeviation="29.5"/>
<feColorMatrix type="matrix" values="0 0 0 0 0.0070833 0 0 0 0 0.566667 0 0 0 0 0.365217 0 0 0 0.54 0"/>
<feBlend mode="normal" in2="BackgroundImageFix" result="effect1_dropShadow"/>
<feBlend mode="normal" in="SourceGraphic" in2="effect1_dropShadow" result="shape"/>
</filter>
<filter id="filter1_f" x="-73.5691" y="-68.2358" width="203.634" height="201.579" filterUnits="userSpaceOnUse" color-interpolation-filters="sRGB">
<feFlood flood-opacity="0" result="BackgroundImageFix"/>
<feBlend mode="normal" in="SourceGraphic" in2="BackgroundImageFix" result="shape"/>
<feGaussianBlur stdDeviation="45" result="effect1_foregroundBlur"/>
</filter>
<filter id="filter2_d" x="20" y="33" width="15" height="7" filterUnits="userSpaceOnUse" color-interpolation-filters="sRGB">
<feFlood flood-opacity="0" result="BackgroundImageFix"/>
<feColorMatrix in="SourceAlpha" type="matrix" values="0 0 0 0 0 0 0 0 0 0 0 0 0 0 0 0 0 0 127 0"/>
<feOffset dy="-1"/>
<feColorMatrix type="matrix" values="0 0 0 0 1 0 0 0 0 1 0 0 0 0 1 0 0 0 0.25 0"/>
<feBlend mode="normal" in2="BackgroundImageFix" result="effect1_dropShadow"/>
<feBlend mode="normal" in="SourceGraphic" in2="effect1_dropShadow" result="shape"/>
</filter>
<linearGradient id="paint0_linear" x1="33.0097" y1="11.2087" x2="9.7001" y2="21.9589" gradientUnits="userSpaceOnUse">
<stop stop-color="#58B42D"/>
<stop offset="1" stop-color="#87CC50"/>
</linearGradient>
<linearGradient id="paint1_linear" x1="8.2485" y1="21.3481" x2="28.8951" y2="35.0499" gradientUnits="userSpaceOnUse">
<stop stop-color="#8CDB3E"/>
<stop offset="1" stop-color="#37BB5C"/>
</linearGradient>
<linearGradient id="paint2_linear" x1="27.5" y1="22.4975" x2="33.5479" y2="36.1994" gradientUnits="userSpaceOnUse">
<stop stop-color="#61BB37"/>
<stop offset="1" stop-color="#B2EA3B"/>
</linearGradient>
<linearGradient id="paint3_linear" x1="25.9718" y1="35.9593" x2="27.4788" y2="40.0079" gradientUnits="userSpaceOnUse">
<stop stop-color="#4EAB0E"/>
<stop offset="0.666667" stop-color="#80CB4D"/>
</linearGradient>
</defs>
</svg>
